<?xml version="1.0" encoding="UTF-8"?>
<svg width="317px" height="46px" viewBox="0 0 317 46" version="1.1" xmlns="http://www.w3.org/2000/svg" xmlns:xlink="http://www.w3.org/1999/xlink">
    <!-- Generator: Sketch 50.2 (55047) - http://www.bohemiancoding.com/sketch -->
    <title>Logo_White</title>
    <desc>Created with Sketch.</desc>
    <defs></defs>
    <g id="Logo_White" stroke="none" stroke-width="1" fill="none" fill-rule="evenodd">
        <g id="Group-5" fill="#FFFFFF">
            <path d="M16.0735962,11.8860522 C16.0735962,16.0269848 19.3981744,19.3837509 23.4993998,19.3837509 C27.6006252,19.3837509 30.9252034,16.0269848 30.9252034,11.8860522 C30.9252034,7.74511968 27.6006252,4.38835365 23.4993998,4.38835365 C19.3981744,4.38835365 16.0735962,7.74511968 16.0735962,11.8860522 M45.9518264,15.698047 C45.2709697,13.488079 44.276093,11.4170067 43.0180926,9.53694626 C40.5020917,5.77609813 36.9468001,2.75481477 32.752185,1.00031791 C32.0153904,0.691984114 31.294441,0.46170337 30.5982193,0.287174807 C30.5369999,0.277721177 30.4613758,0.258086713 30.3766288,0.231907429 C30.0350001,0.15167277 29.7008137,0.0864669592 29.3733495,0.0316843824 C28.1052658,-0.16732666 28.2231434,0.759856333 29.6823278,1.56923255 C33.1358271,3.70478344 35.4405607,7.54925985 35.4405607,11.9376836 C35.4405607,13.8048968 35.0223475,15.5729681 34.2771503,17.1536637 C34.2771503,17.1536637 31.0325176,25.7159865 27.7271455,31.8695728 C24.3175802,38.2175644 22.1035955,42.2166926 18.5238161,45.2457327 C18.3118286,45.4251093 18.4080993,45.773924 18.6815463,45.814405 C21.2309178,46.191823 27.2484331,46.5377289 31.1112626,40.991599 C33.123103,38.0154022 33.6937647,35.0828375 33.6937647,35.0828375 C33.6937647,35.0828375 32.6030975,41.5338495 31.3050043,44.2097118 C31.2910799,44.4349021 31.5165116,44.5960986 31.7212968,44.5054407 C32.8268487,44.0155488 35.7423367,42.4755766 37.6516644,39.2000148 C37.6411011,39.0979641 37.63774,39.0291223 37.63774,39.0291223 C38.9516782,36.4514323 40.2046371,30.6529632 40.2046371,30.6529632 C40.2046371,30.6529632 40.1899924,37.2675958 39.485128,40.1150778 C39.5004929,40.3036656 39.7170418,40.3984443 39.8632484,40.2799103 C41.3305954,39.0911769 47,33.7816301 47,22.7029448 C46.9997599,20.2571209 46.632443,17.9082573 45.9518264,15.698047 M18.4693187,42.9409861 C18.2306828,43.1831445 17.8472808,43.1974461 17.5971211,42.9674078 L17.5927998,42.963287 C17.3071088,42.6983429 17.02814,42.409886 16.7558934,42.099613 C15.0820806,39.7417806 13.0027788,34.1997715 13.0027788,34.1997715 C13.0027788,34.1997715 14.2595788,41.6872892 15.6949957,44.2097118 C15.7089201,44.4356293 15.4815678,44.5953714 15.2760623,44.5042287 C14.0022169,43.9394349 10.3403313,41.985927 8.56616659,37.6033209 C7.66612011,34.8932801 6.96821797,31.6645017 6.96821797,31.6645017 C6.96821797,31.6645017 6.95525384,37.396553 7.51511204,40.1150778 C7.49974715,40.3036656 7.28295815,40.3984443 7.13675161,40.2799103 C5.66964464,39.0914193 0,33.7816301 0,22.7029448 C0.000240076416,20.2571209 0.367556993,17.9082573 1.04841371,15.698047 C1.72903035,13.488079 2.72414709,11.4170067 3.98190743,9.53694626 C6.49766819,5.77609813 10.0531999,2.75481477 14.247815,1.00031791 C14.9846096,0.691984114 15.705319,0.46170337 16.4017807,0.287174807 C16.4630001,0.277721177 16.5386242,0.258086713 16.6236113,0.231907429 C16.9649999,0.15167277 17.2991863,0.0864669592 17.6266505,0.0316843824 C18.875528,-0.191081937 18.8522406,0.807366886 17.3179123,1.56923255 C13.8641729,3.70478344 11.5594393,7.54925985 11.5594393,11.9376836 C11.5594393,13.8048968 11.9776525,15.5729681 12.7228497,17.1536637 C12.7228497,17.1536637 15.9677225,25.7159865 19.2728545,31.8695728 C20.3452759,33.866228 21.2986193,35.6270273 22.2145108,37.2014204 C22.3756021,37.4784845 22.372001,37.824148 22.2008265,38.095152 C21.0114879,39.9771517 19.8293516,41.5600288 18.4693187,42.9409861" id="Symbol"></path>
            <path d="M174.277508,20.0002949 C174.275483,20 174.273458,20 174.271723,20 L174.26912,20 C174.16673,20.0002949 174.056819,20.0179878 173.940257,20.0545533 C173.934472,20.0563225 173.928398,20.0583867 173.922613,20.0604509 C173.478344,20.2070075 173.053454,20.4726966 172.678024,20.7631558 C172.150165,21.1712731 171.693169,21.6740477 171.172831,22.0936654 C170.866239,22.340482 170.358338,22.4195105 170.178143,22.7211752 C169.551943,23.7697772 168.951775,24.8496368 168.487549,25.9796263 C167.900397,27.4074471 167.456128,28.8957188 167,30.2141383 C167.118009,30.6266788 167.133049,30.9475109 167.235439,30.9796531 C167.278825,30.9932177 167.326549,30.9997051 167.376877,31 L167.380058,31 C167.384975,31 167.389892,30.9997051 167.395099,30.9997051 C167.522363,30.9967563 167.662643,30.957242 167.783834,30.9035734 C167.787883,30.902099 167.791643,30.9000348 167.795403,30.8985604 C167.804081,30.8944321 167.812179,30.8908935 167.820567,30.8864703 C167.82722,30.8835214 167.833583,30.8802777 167.840235,30.8773289 C167.84226,30.8758545 167.844863,30.874675 167.847177,30.8737903 C167.851805,30.8711364 167.855854,30.8690722 167.860482,30.8667131 C169.668795,29.9160121 171.278114,28.6674798 172.774918,27.2803528 C173.283398,26.8091306 173.807207,26.2028523 173.997526,25.5579444 C174.432539,24.086481 174.680416,22.5560411 174.97457,21.043589 C174.977173,21.0303193 174.979487,21.0167547 174.981801,21.0037799 C175.079853,20.4125405 174.772682,20.0035386 174.277508,20.0002949 M211.963144,17.718194 C212.120871,18.6651295 211.734642,19.7994372 211.516539,20.8108449 C211.515384,20.8168892 211.513361,20.8226456 211.510473,20.8286899 C211.508739,20.8327194 211.506428,20.8364611 211.504117,20.8404906 C211.439698,20.9446823 211.166708,21.0448444 210.881875,21.0917595 C210.880719,21.0920473 210.879564,21.0920473 210.878408,21.0923351 C210.877253,21.0926229 210.876386,21.0926229 210.875231,21.0929108 C210.694682,21.1219808 210.510378,21.129752 210.372006,21.1035602 C210.369984,21.1029845 210.367962,21.1026967 210.366228,21.1024089 C210.353229,21.0998185 210.341096,21.0969403 210.329252,21.0937742 C210.073018,21.0258482 209.850582,20.4916499 209.785007,20.1341746 C209.782985,20.123813 209.781251,20.1131636 209.779518,20.102802 C209.708743,19.665312 209.830649,19.1964495 209.805228,18.7448563 C209.795695,18.5759045 209.77374,18.4078163 209.744275,18.228503 C209.698343,17.9484519 209.633924,17.6413455 209.571526,17.2619956 C209.146876,17.4557001 208.825933,17.5443493 208.574898,17.72798 C207.913946,18.2112337 207.249528,18.6993803 206.648085,19.2519992 C205.642791,20.1753332 204.680828,21.1464457 203.709911,22.1063332 C203.189064,22.6209595 202.655796,23.1275268 202.185214,23.6859021 C201.168943,24.8904385 200.13245,26.0849011 199.209775,27.3596662 C198.253012,28.6813463 196.894999,30.7032982 196.193026,33.2781567 C196.16125,33.4591969 196.128029,33.6649899 196.09423,33.8828714 C195.964524,34.7218734 195.05196,35.2566473 194.291345,34.8741314 C194.286723,34.8718289 194.281812,34.8695263 194.277479,34.8672237 C193.816141,34.628619 193.503287,34.0961477 193.14479,33.6765028 C193.071415,33.5907317 193.006417,33.447684 193.005262,33.3334185 C193.005262,33.3126953 193.007284,33.29226 193.011906,33.2738393 C193.331405,31.9685651 193.64137,30.6595492 194.021244,29.3709686 C194.216814,28.7069625 194.605933,28.1002331 194.806414,27.4370904 C195.29375,25.8235585 195.67998,24.1792295 196.188693,22.5728932 C196.539679,21.4644894 196.209781,22.5518821 196.597166,21.4535521 C196.809491,20.8514278 196.911465,20.2104475 197.058504,19.5855853 C197.167122,19.1253574 197.268229,18.6639782 197.389846,18.1266139 C195.106269,18.8493358 188.447929,27.3691644 184.316979,30.3380516 C183.933638,30.6134976 182.677887,31.5244552 181.896473,31.8894139 C182.060556,31.8571778 182.183329,31.8704177 182.089732,32.0232513 C181.97447,32.2114871 181.648616,32.0425354 181.429647,32.0425354 L181.427914,32.0425354 L181.417514,32.0425354 C179.739424,32.0408085 178.135864,31.6519605 176.753296,30.633933 C176.740874,30.6250105 176.728453,30.6158002 176.716031,30.6065899 C176.715742,30.6060142 176.715453,30.6057264 176.714876,30.6054386 C176.714876,30.6054386 176.714876,30.6054386 176.714587,30.6051507 C176.70332,30.5968039 176.691476,30.5878814 176.68021,30.5795346 C176.664322,30.567446 176.648434,30.5553575 176.632545,30.5429811 C176.63139,30.5421176 176.630523,30.5412542 176.629368,30.5406785 C176.621857,30.5346343 176.613768,30.52859 176.606258,30.5225457 C176.59788,30.5159258 176.589214,30.5093059 176.580836,30.502686 C176.008281,30.0525319 175.65845,29.3211754 175.185269,28.6891175 C174.091578,29.8334991 173.083395,30.9211796 172.032458,31.9659747 C171.756002,32.2405572 171.364862,32.4282173 170.994521,32.5767337 C170.989899,32.5784606 170.985566,32.5804753 170.980944,32.5822023 C170.974877,32.5845049 170.968522,32.5870953 170.962456,32.5896857 C170.956389,32.5919882 170.950612,32.5945786 170.944834,32.597169 C170.922591,32.6066672 170.900347,32.6164531 170.878392,32.6262391 C170.868859,32.6305564 170.859037,32.6348738 170.849504,32.6394789 C170.84806,32.6400546 170.846905,32.640918 170.845171,32.6414937 C170.828705,32.6489771 170.812239,32.6570361 170.795773,32.6650951 C170.777863,32.6740176 170.759664,32.6829401 170.741753,32.6921504 C170.722976,32.7019364 170.70391,32.7114345 170.685422,32.7212205 C170.6756,32.7266891 170.666067,32.7318699 170.656534,32.7370507 C170.013782,33.0841644 169.451337,33.5938977 168.627458,33.5962003 L168.62168,33.5962003 L168.620236,33.5962003 C168.537328,33.5962003 168.452109,33.5907317 168.363713,33.5797945 C168.360824,33.5795066 168.357935,33.5792188 168.355046,33.5786432 C168.35418,33.5786432 168.353313,33.5786432 168.352446,33.5783553 C168.339447,33.5769162 168.32587,33.5749015 168.312581,33.5728867 C166.929435,33.3691085 165.002911,31.6292226 165.000022,30.2283913 C164.999733,30.1777346 165.002333,30.12679 165.007244,30.0769968 C165.136372,28.8180619 165.32732,27.4796881 165.879365,26.3684061 C166.75842,24.5982988 167.870021,22.9338223 168.991444,21.294962 C169.52009,20.5227347 170.546183,19.4056963 171.270399,18.8113432 L171.290909,18.7946495 C171.905352,18.3001708 172.572948,18.0932265 173.252677,18.0920752 L173.258166,18.0920752 L173.265388,18.0920752 C173.847765,18.0935143 174.43852,18.2451967 175.012231,18.4956021 C175.022053,18.4999195 175.031875,18.5045246 175.041985,18.5088419 C175.047763,18.5114323 175.05354,18.5140227 175.059318,18.5166131 C175.063362,18.5183401 175.067118,18.5203548 175.071162,18.521794 C175.07925,18.5255356 175.08705,18.5289895 175.09485,18.5327312 C175.112183,18.5402146 175.129515,18.5485614 175.146559,18.5563326 C175.158403,18.5618013 175.170247,18.5675577 175.18238,18.5730263 C176.212228,19.0603095 177.164658,19.7228765 178.111021,20.3673107 C178.761573,20.8108449 179.2102,21.9140679 179.210778,22.7873208 C179.210778,23.0187299 179.179868,23.234021 179.11256,23.4165004 C179.062584,23.5523525 178.971587,23.6686327 178.864992,23.767068 C178.038513,24.5312362 177.702259,25.544083 177.699948,26.5232545 C177.697926,27.413489 177.972071,28.2758047 178.404521,28.8980765 C178.501872,29.038246 178.623201,29.1582679 178.769373,29.2469172 C179.25151,29.5393447 179.900618,29.6659865 180.579191,29.6665621 L180.584391,29.6665621 C180.586991,29.6665621 180.589302,29.6665621 180.591902,29.6665621 C181.52931,29.6654109 182.003069,29.2192863 182.689731,28.8442538 C185.74519,27.1751721 192.065254,19.1527005 195.948058,15.8214449 C196.448105,15.3923018 197.16741,15.2472394 197.809008,15.0558375 C197.813918,15.0543984 197.818829,15.0532471 197.824029,15.0515202 C197.946513,15.0166937 198.062353,15.0002878 198.172416,15 L198.174727,15 L198.19177,15.0002878 C198.584355,15.0046052 198.953252,15.1954314 199.183776,15.5120359 C199.932258,16.5415764 200.37713,17.6378916 200.379441,18.7880296 C200.380596,19.3331651 200.282667,19.8903891 200.070342,20.4582625 C199.523496,21.9221269 199.675157,21.1916338 199.182621,22.6713284 C199.1442,22.7864573 199.109535,22.9030254 199.07198,23.0181543 C199.199664,22.8615789 199.32446,22.7021254 199.453877,22.5467013 C199.919259,21.9863113 200.406595,21.4365706 200.937841,20.9397893 C201.393401,20.5138123 201.930424,20.1750454 202.422094,19.7861974 C202.591954,19.6517844 202.745926,19.4917552 202.884009,19.3245304 C202.95334,19.2407741 202.938318,19.0649147 203.016315,19.0145458 C204.57221,18.0042894 205.504996,16.1912966 207.447409,15.6660209 C207.549094,15.6383899 207.655112,15.615652 207.764019,15.5980948 C207.764308,15.597807 207.764597,15.597807 207.764886,15.597807 C207.767774,15.5972313 207.770952,15.5969435 207.773841,15.5963679 C209.306336,15.3502798 211.452119,16.0522784 211.887747,17.4047555 C211.92039,17.5066446 211.945233,17.6111241 211.963144,17.718194 M216,25.6190337 C216,25.7453403 216.015427,25.8725239 216.047514,26 C218.239603,25.3085301 219.438233,23.6019297 221,22 C218.831359,22.3593305 215.998766,23.9001535 216,25.6190337 M237.831603,20.294796 C237.88764,20.3766657 237.943963,20.4582501 238,20.5398345 C237.409895,21.8081014 236.423812,22.782265 235.467178,23.7812462 C234.461369,24.8310037 233.57135,26.0259587 232.431738,26.8982844 C232.426591,26.902278 232.421445,26.9062716 232.416013,26.9102653 C232.413154,26.9128326 232.410009,26.9151147 232.406864,26.9179673 C232.405149,26.9193936 232.403147,26.9208199 232.401432,26.9225315 C232.399145,26.924243 232.397143,26.9259546 232.395142,26.9276662 C232.391711,26.9305188 232.38828,26.9330861 232.384849,26.936224 C232.381133,26.9393618 232.37713,26.942785 232.373413,26.9462081 C232.371698,26.9476344 232.369982,26.9490607 232.368553,26.950487 C232.366266,26.9521985 232.36455,26.9541954 232.362549,26.9559069 C232.356831,26.9607563 232.351685,26.965891 232.345966,26.9707405 C231.915395,27.37039 231.61491,28.1574229 230.887857,28.160846 L230.883283,28.160846 L230.880995,28.160846 C230.740903,28.1605607 230.584799,28.1314642 230.408968,28.0644281 C230.405823,28.063287 230.402392,28.0618607 230.399248,28.0607197 C230.39839,28.0604344 230.397532,28.0601492 230.396674,28.0598639 C230.391528,28.0581523 230.386382,28.0572965 230.380664,28.0570113 L230.379234,28.0570113 C230.256582,28.0570113 230.003271,28.4050287 229.794561,28.6078487 C229.787127,28.6149802 229.77998,28.6218265 229.772832,28.6286727 C229.769401,28.6318106 229.766542,28.6343779 229.763397,28.6375158 C229.763112,28.6375158 229.762826,28.6378011 229.76254,28.6380863 C229.757393,28.6426505 229.752533,28.6472146 229.747673,28.6514935 C229.254775,29.0885122 228.7979,29.587147 228.244105,29.9277477 C227.876718,30.153959 227.367238,30.1508211 227.002996,30.3895839 C226.549267,30.6488854 226.118124,30.96638 225.636662,31.1560781 C224.564237,31.5788337 223.754557,32.4169282 222.582352,32.7446921 C222.572631,32.7475447 222.56291,32.7501121 222.553475,32.7526794 C221.948789,32.9187008 221.317799,32.9997147 220.682521,33 L220.679948,33 C220.675373,33 220.670799,32.9997147 220.66651,32.9997147 C218.40787,32.9957211 216.093479,31.9756306 214.691121,30.1593789 C214.649665,30.10575 214.609067,30.0515506 214.56904,29.9964954 C213.541502,28.5761848 213.340226,27.1176495 213.019727,25.5886548 C213.00629,25.5247565 213,25.4557235 213,25.3844085 C213.000858,25.1407963 213.076622,24.8697991 213.19756,24.67896 C214.314586,22.9174783 215.4136,21.1391662 216.996649,19.7302661 C217.003511,19.7239904 217.010658,19.7179999 217.01752,19.7120095 C217.029528,19.7014548 217.041822,19.6909002 217.054116,19.6806308 C217.057833,19.677493 217.061549,19.6743551 217.065552,19.670932 C217.606196,19.2213619 218.297511,19.001141 219.000549,19 C219.00255,19 219.004552,19 219.006553,19 C219.009412,19 219.012271,19 219.01513,19 C219.740468,19.0019968 220.477242,19.236766 221.071922,19.6934675 C221.073637,19.6946086 221.075067,19.6960349 221.077068,19.6971759 C221.084788,19.7034516 221.093079,19.7097274 221.101084,19.7160031 C221.781821,20.2511512 222.613801,20.6014508 222.886267,21.5299727 C222.964319,21.7961205 223.007205,22.0514283 223.007491,22.2976079 C223.007777,22.784547 222.842238,23.2369697 222.454839,23.6728473 C221.618284,24.6147765 220.940692,25.7167366 220.018081,26.5571132 C219.395096,27.1244957 218.493356,27.4331472 217.667665,27.7172664 C217.054974,27.9286442 216.36423,27.9149517 215.721804,27.9993887 C215.742675,29.2642324 217.259967,30.6317698 218.679193,30.6369045 C218.682052,30.6371898 218.684911,30.6371898 218.68777,30.6371898 L218.688914,30.6371898 C218.800416,30.6369045 218.911347,30.628632 219.021134,30.6109458 C219.027996,30.6098048 219.034857,30.6086638 219.041433,30.6075227 C219.046579,30.6066669 219.05144,30.6055259 219.056586,30.6049554 C220.699961,30.3088553 222.29559,29.7349118 223.899511,29.2419822 C224.911896,28.9307633 225.901409,28.546803 226.900643,28.1939362 C227.008714,28.1557113 227.128794,28.1288969 227.217996,28.0630018 C228.970014,26.7599332 230.680291,25.3969599 232.483486,24.1697706 C233.323757,23.5978239 234.300119,23.3245446 234.893083,22.3281307 C235.277338,21.6820164 236.103886,21.2852194 236.762608,20.8196748 C237.082821,20.5934635 237.473079,20.4668079 237.831603,20.294796 M124,24.4908456 C124,24.6598494 124.01897,24.8300778 124.05819,25 C126.230454,24.2012124 127.368624,22.0121242 129,20 C126.746475,20.5171147 123.998975,22.4398383 124,24.4908456 M149.783376,18.6636378 C149.855584,18.7452142 149.927792,18.8267905 150,18.9083669 C149.661399,19.4446883 149.397307,20.051015 148.971539,20.5037351 C147.500624,22.0681505 145.965843,23.5709497 144.47105,25.1128014 C143.760765,25.8461211 143.080398,26.6092365 142.397443,27.3688805 C142.393127,27.3735089 142.388525,27.3784267 142.384497,27.3833444 C142.368099,27.4015689 142.351989,27.4200827 142.335879,27.4383072 C142.055677,27.7608522 141.819491,28.0854221 141.359488,28.0880256 C141.357474,28.0880256 141.355461,28.0883149 141.353734,28.0883149 C141.352008,28.0883149 141.350282,28.0880256 141.348556,28.0880256 C141.239525,28.087447 141.117836,28.0689332 140.980324,28.0284343 C140.978598,28.0278558 140.976872,28.0272772 140.975146,28.0269879 C140.963638,28.0238059 140.951268,28.0223595 140.938898,28.0223595 L140.937459,28.0223595 C140.691492,28.0223595 140.26486,28.542192 139.959343,28.8858543 C139.947835,28.8988718 139.936328,28.9116 139.925108,28.924039 C139.924533,28.9246176 139.924245,28.9251961 139.92367,28.9257747 C139.919067,28.9306924 139.914464,28.9358994 139.909861,28.9408171 C138.878236,30.0814403 138.012315,30.5280855 136.709693,30.7843858 C136.328227,31.05515 135.955105,31.3400888 135.563283,31.595232 C134.80668,32.0867153 134.070504,32.6244831 133.267585,33.0245546 C132.623754,33.3453639 131.901098,33.5183521 131.200594,33.7104327 C130.490883,33.9051168 129.761036,33.9997107 129.0309,34 L129.027448,34 L129.017091,34 C126.33849,33.9965287 123.6596,32.7277554 121.968321,30.5113074 C121.957389,30.4971327 121.946457,30.4826688 121.935525,30.4684942 C120.673755,28.7932853 120.323934,27.0448891 120.029348,25.1611108 C120.010649,25.0425068 120.000005,24.9134889 120.000005,24.7830245 C119.999429,24.4847789 120.052938,24.1761193 120.188148,23.9539537 C121.515798,21.7725084 122.887751,19.613916 124.814641,17.8947368 C125.4835,17.2979563 126.347983,17.0014464 127.213617,17 L127.220521,17 L127.230877,17 C128.067455,17.0020249 128.904033,17.2797318 129.565125,17.8284922 C129.5657,17.8290707 129.566275,17.8296493 129.567138,17.8299386 C129.57807,17.8391955 129.589002,17.8484524 129.599934,17.8577093 C129.607414,17.8640734 129.614894,17.8704375 129.622086,17.8768016 C129.629853,17.8837443 129.637908,17.890687 129.645675,17.8973403 C129.801886,18.0350367 129.972482,18.1741794 130.161201,18.2537308 C131.262445,18.7177327 131.948565,19.7640513 131.949428,20.9171133 C131.949716,21.7253561 131.613416,22.5859581 130.847033,23.3354774 C130.013332,24.1503735 129.265936,25.0743274 128.589597,26.0277877 C127.816885,27.1174979 126.683707,27.3801623 125.519461,27.6121633 C124.773503,27.7605629 124.009996,27.8216006 122.91882,27.9665288 C123.297697,28.6231899 123.503101,29.1864141 123.877087,29.5937176 C123.881978,29.5989246 123.886581,29.6038423 123.891184,29.6090493 C123.897513,29.6157027 123.903842,29.6226454 123.910171,29.6292988 C123.911897,29.6313237 123.913623,29.6330594 123.915637,29.6353736 C124.942947,30.73463 126.075549,31.1257338 127.255618,31.1271802 L127.26281,31.1271802 C127.265399,31.1271802 127.268276,31.1271802 127.270865,31.1271802 C128.256749,31.1257338 129.275429,30.8538125 130.294109,30.4968435 C130.294397,30.4968435 130.294685,30.4968435 130.294972,30.4965542 C130.353659,30.4760155 130.412634,30.4551874 130.471609,30.4340701 C132.008978,29.8812599 133.493702,29.1812071 135.01266,28.5728555 C135.455114,28.3958174 135.931802,28.3049841 136.394394,28.1794374 C136.592894,28.1253425 136.835698,28.1400956 136.989607,28.028145 C138.404424,26.9965797 139.778679,25.9074481 141.215935,24.9091497 C142.3891,24.0945429 143.253007,22.7415897 144.900271,22.7019586 C145.053605,22.6984872 145.25901,22.4653292 145.341575,22.2914731 C146.071998,20.7551177 147.662301,20.1389555 148.789437,19.0289959 C149.019006,18.8027805 149.446789,18.7802168 149.783376,18.6636378 M293,31 C292.285449,31.4376179 291.809587,31.7370407 291.324323,32.023976 C290.85756,32.3000888 290.415363,32.7044067 289.903713,32.8056943 C288.373615,33.1087246 287.45768,33.8532579 287.058853,35.2202242 C287.020335,35.3520369 287.000318,35.4638695 287.000015,35.5582196 C286.997892,35.8798424 287.22081,35.9969475 287.692426,35.999445 C287.767642,35.9997225 287.841948,36 287.916557,36 L287.932328,36 C289.247697,35.999445 290.505137,35.9023199 291.307642,34.7123987 C291.316134,34.6996337 291.32493,34.6868687 291.333118,34.6738262 C291.340094,34.6632812 291.34707,34.6524587 291.354045,34.6413586 C292.027652,33.5829726 292.958146,32.6297591 293,31 M317,18.6622993 C317,18.7970821 316.986636,18.9241874 316.92766,19.0262697 C316.029361,20.5768406 314.839376,21.8473249 313.200823,22.6978214 C312.648538,22.9844481 312.177018,23.4195065 311.665697,23.7829083 C310.555897,24.5714161 309.518437,25.4944223 308.317994,26.1165843 C305.822687,27.4098167 303.242257,28.5469399 300.69117,29.7366683 C300.398903,29.8725885 300.07526,29.9962816 299.757427,30.0210202 C298.468955,30.121112 297.788258,31.1951091 296.79612,31.7652347 C296.678168,31.8334792 296.719713,32.1528063 296.669162,32.3509996 C296.578809,32.7053021 296.489908,33.0607419 296.368179,33.4048077 C296.325182,33.5256573 296.105255,33.6411042 296.106708,33.7204383 C296.106708,33.7238506 296.107289,33.7269784 296.108161,33.729822 C296.166265,33.9487729 296.192412,34.1498097 296.192412,34.3360602 C296.192122,35.6881535 294.799061,36.2591321 294.045443,37.1275428 C294.038471,37.1355046 294.032079,37.1428978 294.025107,37.1505753 C294.013486,37.1639398 294.001574,37.17702 293.989663,37.1901002 C293.986176,37.1940811 293.98269,37.198062 293.978913,37.202043 C292.91705,38.3610613 291.000756,38.9974408 289.234954,39 L289.224205,39 L289.219266,39 C288.396794,38.9997156 287.608313,38.8615206 286.954054,38.5746096 C286.941561,38.5689225 286.928778,38.5632355 286.915995,38.5575484 C286.911347,38.555558 286.906698,38.5532832 286.90205,38.5512927 C286.89624,38.5484492 286.890139,38.5456057 286.884038,38.5430465 C286.877356,38.5399186 286.870383,38.5367908 286.863701,38.5336629 C285.981962,38.1202152 285.178955,35.644932 285.180117,34.5368126 C285.180117,34.4628811 285.183894,34.3952054 285.191157,34.3343541 C285.491268,31.882672 287.531324,31.3910276 289.264588,30.5140864 C290.469098,29.9050046 291.686973,29.3200927 293.107052,28.6217245 C291.827877,26.0415154 290.494374,23.3506934 289.174816,20.6888753 C288.811952,21.0286758 288.359026,21.4532132 287.701571,22.068835 C287.24603,23.2181854 286.148432,24.314362 284.988371,25.2643816 C282.680743,27.1539 280.363236,29.0769719 277.828418,30.6423291 C275.833393,31.8741415 273.569924,32.7900389 271.309651,33.4875541 C271.298611,33.4909664 271.287571,33.4943786 271.276531,33.4977908 C271.267234,33.50035 271.258228,33.5031935 271.249222,33.5057527 C271.244864,33.5071744 271.240216,33.5085962 271.235567,33.5100179 C270.74894,33.6536156 270.2995,33.7204383 269.886957,33.7204383 L269.880275,33.7204383 C267.600537,33.7167418 266.458488,31.6645741 266.433503,29.2123234 C266.433213,29.2032241 266.433213,29.1938405 266.433213,29.1844569 C266.434084,28.8941336 266.491027,28.5998294 266.5317,28.200315 C265.517773,29.401133 264.682518,30.5840369 263.65145,31.5710224 C261.727893,33.4119165 259.811019,35.3119559 257.048721,35.9696618 C257.021993,35.9762019 256.994974,35.9821733 256.967955,35.9878604 C256.739604,36.0362002 256.508057,36.0598014 256.2768,36.0598014 C256.272152,36.0598014 256.267213,36.059517 256.262855,36.059517 C255.107443,36.0549674 253.973529,35.4655059 253.380861,34.4751083 C253.361977,34.4432609 253.343674,34.4111291 253.325662,34.378713 C252.865472,33.5401592 251.998259,32.9125946 252.000003,31.8300669 C252.000003,31.7675095 252.002908,31.703246 252.009009,31.6375607 C252.202207,29.5734503 252.659491,27.6000481 253.492422,25.6795354 C254.225704,23.987926 254.71756,22.1970777 255.387507,20.4770331 C255.983662,18.9457982 256.675108,17.4501072 257.334015,15.9421891 C257.334306,15.941336 257.334596,15.940483 257.335177,15.9396299 C257.347089,15.9129008 257.36452,15.8824752 257.384857,15.8517652 C257.449643,15.7542325 257.544354,15.6532875 257.588223,15.6532875 L257.589966,15.6532875 C257.592,15.6532875 257.593453,15.6538562 257.595196,15.6541406 C258.369151,15.8949867 259.28459,15.997922 259.847915,16.4855855 C260.071328,16.6789448 260.24971,17.0053808 260.250291,17.4100136 C260.250581,17.6960716 260.161971,18.0210858 259.937687,18.3660046 C259.102723,19.647863 258.283737,21.0244105 258.281703,22.6736515 C258.281703,22.7689094 258.284318,22.8650203 258.289547,22.962553 C258.290128,22.9690931 258.290419,22.9759176 258.290419,22.9824577 C258.294486,23.4007393 257.693683,23.8187366 257.548712,24.2873485 C256.802938,26.6946717 256.117302,29.1196247 255.40552,31.5369001 C255.248637,32.0694912 255.070546,32.5958266 254.857011,33.2688875 C257.299443,32.9933505 258.732596,31.5892209 260.17795,30.2314406 C262.555886,27.9978564 264.93905,25.7676845 267.246679,23.4658559 C267.262077,23.4505009 267.277184,23.4351459 267.292291,23.4195065 C267.301007,23.4104073 267.309722,23.4015924 267.318729,23.3924931 C267.321343,23.3896496 267.324249,23.3868061 267.326863,23.3839626 C267.752771,22.9395205 268.080191,22.4626624 268.619112,22.4586815 C268.621146,22.4586815 268.62347,22.4586815 268.625794,22.4586815 C268.62899,22.4586815 268.632186,22.4586815 268.635672,22.4586815 C268.827127,22.4606719 269.04531,22.522092 269.303876,22.665121 C269.32247,22.6753576 269.341063,22.686163 269.360238,22.6972527 C269.940413,23.0373376 270.241396,23.4641498 270.239071,23.9176911 C270.237619,24.2705718 270.052846,24.6393762 269.674003,24.9962378 C269.08976,25.5461744 268.742004,26.8954241 268.741423,28.0959578 C268.741132,28.8531869 268.87884,29.5512708 269.182728,29.9527757 C269.316659,30.1299269 269.659477,30.1987401 269.918043,30.2357058 C269.935474,30.238265 269.953196,30.2405398 269.970628,30.243099 C270.24924,30.2806334 270.523785,30.2979789 270.793681,30.2979789 L270.80443,30.2979789 C272.567037,30.294851 274.15039,29.5470056 275.628865,28.7309156 C275.632351,28.7292095 275.635547,28.727219 275.639323,28.7252286 C275.647749,28.7203946 275.656464,28.715845 275.66518,28.711011 C275.677963,28.7039022 275.690746,28.6967934 275.703529,28.6896846 C275.704401,28.6891159 275.705272,28.6885472 275.706144,28.6882628 C275.715731,28.6828601 275.725899,28.6771731 275.735777,28.6717704 C275.738392,28.6703487 275.741007,28.6689269 275.743621,28.6675051 C275.766863,28.654425 275.789815,28.6416291 275.812766,28.6288333 C278.4728,27.1430946 281.019239,25.4406798 283.498857,23.675992 C285.029626,22.5860711 286.414261,21.2726497 287.726556,19.9299401 C288.239621,19.4047421 288.434852,18.5423028 288.660299,17.79986 C288.73322,17.5592983 288.74426,17.3019598 288.74426,17.0403561 C288.74426,16.9291745 288.742226,16.8177086 288.742517,16.706527 C288.742517,16.5711755 288.745422,16.436677 288.758205,16.304169 C288.920898,14.6173936 290.065852,13.30056 291.775873,13.0793342 C291.814513,13.0742158 291.852862,13.0696662 291.891211,13.0651166 C292.253785,13.0221794 292.601832,13.0002844 292.93361,13 L292.936805,13 L292.944068,13 C294.791217,13.0017061 296.144767,13.6801697 296.864103,15.1715954 C296.867299,15.1781355 296.870204,15.1846756 296.8734,15.1909314 C296.881825,15.2088455 296.89025,15.2264753 296.898094,15.2435365 L296.902452,15.2532044 C297.261249,16.0414279 297.07357,16.3661577 296.309784,16.3681482 L296.303683,16.3681482 L296.301068,16.3681482 C296.23018,16.3681482 296.153773,16.3653047 296.072717,16.3596177 C296.060805,16.3587646 296.048603,16.3579115 296.036401,16.3570585 C296.027686,16.3564898 296.01897,16.3556367 296.009964,16.355068 C295.997762,16.354215 295.985269,16.3530776 295.973067,16.3519402 C295.921354,16.3473905 295.86906,16.3417035 295.817056,16.3357321 C295.720893,16.324358 295.624729,16.3107091 295.527985,16.2959228 C295.498933,16.2916576 295.46959,16.2871079 295.440537,16.2825583 C295.400445,16.2763026 295.360062,16.2700468 295.31968,16.2637911 C294.976862,16.2094799 294.633172,16.1540312 294.296165,16.1528938 L294.287449,16.1528938 L294.275538,16.1528938 C293.772061,16.1548843 293.284853,16.2811365 292.838318,16.717048 L292.827859,16.7272847 C292.652383,16.9010237 292.471096,17.1174155 292.408924,17.3443283 C292.286323,17.7921825 292.232576,18.2278096 292.231995,18.6540531 C292.230543,20.0775187 292.824373,21.3954897 293.446965,22.6986745 C294.278153,24.4397611 295.191559,26.1441664 295.989627,27.8994707 C295.992823,27.9065795 295.996309,27.9139726 295.999505,27.9213658 C296.000086,27.9225032 296.000667,27.9236406 296.001248,27.9250623 C296.222917,28.4059014 296.445168,28.6962247 296.842895,28.6984995 L296.847834,28.6984995 L296.851029,28.6984995 C296.996872,28.6979308 297.165666,28.6589746 297.366709,28.5773656 C298.820488,27.986198 300.288795,27.4282996 301.753324,26.8627237 C302.279171,26.6596964 302.826518,26.5038716 303.340454,26.2746839 C305.429899,25.3431471 307.525736,24.4227 309.584967,23.4297432 C310.23022,23.1189466 310.770884,22.5985826 311.353384,22.165799 C312.592177,21.2464893 313.839104,20.3365633 315.055816,19.3902402 C315.445989,19.0865523 315.714433,18.6293145 316.113903,18.3429721 C316.323371,18.1928343 316.695531,18.2599414 316.993899,18.2286627 C316.991865,18.2599414 316.990994,18.2920731 316.990994,18.3247736 C316.990994,18.4356709 317,18.5514021 317,18.6622993 M116,21.04605 C116,21.0768086 115.99942,21.1069813 115.99826,21.1359823 C115.934466,22.6249912 116.094241,24.2062759 115.640145,25.5728364 C115.152992,27.0381172 114.244221,28.4626796 113.204672,29.6145157 C111.707837,31.2734293 110.011792,32.782358 108.244124,34.1483326 C108.235715,34.1547772 108.227886,34.160929 108.219476,34.1670807 C107.436263,34.7602822 106.305952,35.0327154 105.09445,35.0333013 L105.089811,35.0333013 L105.067773,35.0333013 C103.254289,35.0283213 101.263343,34.4166647 99.985147,33.3626702 C99.9778977,33.3565185 99.9706484,33.3506597 99.9636891,33.3448009 C99.9590495,33.3409927 99.9547,33.3371845 99.9500604,33.3333763 C99.9259928,33.3131635 99.9022151,33.2929507 99.8787273,33.272445 C97.9231575,31.5669541 97.3835199,30.7461391 97.3835199,28.6601205 C97.38323,28.1091022 97.4209263,27.4696164 97.4800805,26.7024091 C97.3362545,26.7284807 97.0880387,26.7475217 97.0865888,26.7782803 C97.0300443,27.9652692 95.9861458,28.287795 95.2899235,28.9211291 C93.5132662,30.5390312 91.7702457,32.1947224 89.986919,33.8047151 C88.7040838,34.9629959 87.2507451,35.7855687 85.4914861,35.9745143 C85.4706081,35.9768578 85.4497302,35.9789084 85.4291422,35.980959 C85.2928554,35.9935553 85.1594684,36 85.0289811,36 L85.0266613,36 L85.0176722,36 C83.8456061,35.9973635 82.9011679,35.4926297 81.9570197,34.6946638 C81.0653564,33.9415177 80.6008216,32.9695461 80,32.0529399 L80,30.3415903 C80.5683447,28.8323686 81.13147,27.3213892 81.7061941,25.814804 C82.4630205,23.8304352 83.1876601,21.8322983 84.0019009,19.8722434 C84.9953443,17.4815683 86.0288039,15.1064189 87.1170681,12.7588057 C87.1266371,12.7380071 87.1364962,12.7172084 87.1460652,12.6967027 C87.693822,11.5457454 88.3595973,11.0032223 89.2428514,11 L89.2498107,11 C89.2524205,11 89.2547402,11 89.25735,11.0002929 C89.688828,11.0014647 90.1716311,11.1312367 90.718228,11.3805278 C90.7425856,11.3913665 90.7669432,11.4027911 90.7913008,11.4145087 C90.7918808,11.4148016 90.7924607,11.4148016 90.7927507,11.4148016 C90.8214579,11.4285698 90.8501651,11.4423379 90.8791623,11.456399 C91.6046718,11.8102693 91.9706162,12.2930327 91.9682964,12.7998172 C91.9665566,13.2398116 91.6867338,13.6979682 91.1244785,14.1057393 C90.4444946,14.5984627 89.7021667,15.0492958 89.7050665,15.9820135 C89.7056464,16.1059267 89.7189851,16.2380422 89.7476923,16.3801176 C89.751172,16.3971081 89.7526218,16.4143915 89.7526218,16.4322608 C89.7537817,16.6209135 89.5777688,16.8485271 89.4841079,17.0503621 C88.7823762,18.5628061 87.693242,19.8353331 87.5166492,21.6723536 C87.3995006,22.8903939 86.5165364,24.0741604 85.8388723,25.1882074 C84.6311398,27.173455 83.8313975,29.2952122 83.4950302,31.586874 C83.455594,31.8560849 83.4434152,32.129397 83.4437052,32.4179419 C83.4439952,32.8989478 83.4787918,33.4221368 83.4787918,34.0402381 C84.7149416,33.339821 85.7924768,32.8470976 86.7345952,32.1639638 C87.8292388,31.3698062 88.6753766,30.0656418 89.8654209,29.6045558 C91.4330085,28.9967074 91.7937334,27.3260763 93.2438824,26.5910923 C94.5151188,25.9469195 95.2217801,24.249045 96.436762,23.3901479 C98.1797825,22.1580464 99.316762,20.3055002 101.046444,19.1475124 C101.052243,19.1437042 101.058043,19.1398959 101.063842,19.1360877 C101.065582,19.134916 101.067322,19.1340372 101.068772,19.1328654 C101.479662,18.8671697 102.073524,18.7397413 102.648538,18.7379836 L102.662457,18.7379836 L102.667676,18.7379836 C102.986065,18.7382766 103.298075,18.7769445 103.569778,18.8519369 C103.574128,18.8531087 103.578478,18.8542804 103.582827,18.8554522 C103.589497,18.8575028 103.596166,18.8592604 103.602835,18.861311 C104.201627,19.0350238 104.493049,19.6334982 104.492469,20.2914392 C104.491889,20.8281034 104.297318,21.4046073 103.917165,21.8223384 C103.628063,22.1392984 103.432622,22.5599588 103.255159,22.9606993 C102.657817,24.3088046 102.055836,25.6566169 101.519678,27.029622 C101.203029,27.8398913 100.934225,28.6844344 100.77561,29.5380586 C100.77329,29.5500691 100.771551,29.5617867 100.769811,29.5740901 C100.694998,30.160554 101.342795,31.2060533 102.062505,31.8997328 C102.440628,32.264149 102.83818,32.5313093 103.161208,32.5846242 C103.166718,32.585503 103.171937,32.5860889 103.176867,32.5869677 C103.210213,32.5916548 103.2424,32.5939983 103.274007,32.5939983 L103.274587,32.5939983 C103.300685,32.5939983 103.326202,32.5922406 103.35114,32.5890183 C104.182199,32.4721356 105.045445,32.1431651 105.758486,31.6896956 C109.176963,29.5140376 111.945324,26.7612899 113.133049,22.7023271 C113.288184,22.1721075 113.450568,21.6439385 113.674426,20.8992876 C113.53002,20.7572122 113.464776,20.5776406 113.465356,20.3913313 C113.465936,20.0163694 113.731551,19.6132854 114.1494,19.427562 C114.15114,19.4266832 114.15288,19.4258044 114.154619,19.4249256 C114.157229,19.4240468 114.159839,19.422875 114.162159,19.4219962 C114.204785,19.4052987 114.25234,19.3973893 114.303665,19.3973893 L114.305405,19.3973893 C114.401675,19.3973893 114.510995,19.4237538 114.627853,19.4679876 C114.639452,19.4723817 114.650761,19.4767758 114.66236,19.4817558 C114.66526,19.4829275 114.668159,19.4840993 114.671059,19.485271 C114.692807,19.4940592 114.714555,19.5034332 114.736593,19.5133932 C114.736883,19.5136861 114.737463,19.5136861 114.737753,19.513979 C114.758051,19.5230602 114.778059,19.5327271 114.798647,19.5426871 C114.838083,19.562021 114.877809,19.5825268 114.917825,19.6042043 C114.926814,19.6091842 114.935803,19.6141642 114.944793,19.6191441 C114.950882,19.6223665 114.956971,19.6258817 114.963061,19.629397 C115.001627,19.6510745 115.040193,19.6736308 115.07905,19.6973589 C115.100217,19.7102482 115.121385,19.7231375 115.142553,19.7366127 C115.192718,19.7682501 115.242594,19.8007663 115.291889,19.8335755 C115.318276,19.8514448 115.344374,19.8693141 115.370181,19.8868904 C115.388739,19.8997797 115.407298,19.912669 115.425276,19.9255583 C115.458913,19.9489935 115.491969,19.9724286 115.524156,19.9958637 C115.534885,20.0034801 115.545324,20.0110965 115.555763,20.0187129 C115.597809,20.0491786 115.638405,20.0790584 115.677551,20.1080593 C115.69321,20.1197769 115.708578,20.1312015 115.723657,20.1426261 C115.924317,20.292318 115.99971,20.7167866 116,21.04605" id="Fill-1"></path>
        </g>
    </g>
</svg>