<?xml version="1.0" encoding="UTF-8"?>
<svg width="33px" height="32px" viewBox="0 0 33 32" version="1.1" xmlns="http://www.w3.org/2000/svg" xmlns:xlink="http://www.w3.org/1999/xlink">
    <!-- Generator: Sketch 50.2 (55047) - http://www.bohemiancoding.com/sketch -->
    <title>Logo Footer</title>
    <desc>Created with Sketch.</desc>
    <defs></defs>
    <g id="Logo-Footer" stroke="none" stroke-width="1" fill="none" fill-rule="evenodd" opacity="0.5">
        <path d="M11.6017337,8.75177321 C11.6017337,11.4523814 13.7945406,13.6415766 16.4996041,13.6415766 C19.2046677,13.6415766 21.3974746,11.4523814 21.3974746,8.75177321 C21.3974746,6.05116501 19.2046677,3.86196977 16.4996041,3.86196977 C13.7945406,3.86196977 11.6017337,6.05116501 11.6017337,8.75177321 M31.3086514,11.2378567 C30.8595757,9.79657327 30.2033805,8.44587396 29.3736355,7.21974756 C27.7141456,4.76702052 25.369166,2.79661833 22.602505,1.65238125 C22.1165341,1.45129399 21.6410142,1.30111089 21.1818043,1.18728792 C21.1414254,1.18112251 21.0915457,1.16831742 21.0356488,1.15124398 C20.8103192,1.09891702 20.5898984,1.0563915 20.3739114,1.02066373 C19.5375158,0.890873917 19.6152648,1.49555848 20.5777056,2.02341253 C22.8555455,3.41616311 24.3756889,5.92343034 24.3756889,8.78544584 C24.3756889,10.0031936 24.0998462,11.1562836 23.6083332,12.1871719 C23.6083332,12.1871719 21.4682563,17.7712955 19.2881172,21.784504 C17.039255,25.9244986 15.5789673,28.5326256 13.2178361,30.5080866 C13.0780146,30.6250713 13.1415123,30.8525592 13.321871,30.8789598 C15.0033713,31.1251019 18.9723708,31.3506928 21.5201945,27.7336515 C22.8471531,25.7926536 23.2235469,23.8801114 23.2235469,23.8801114 C23.2235469,23.8801114 22.5041707,28.0872932 21.6479816,29.8324207 C21.6387974,29.979284 21.7874864,30.0844122 21.9225575,30.0252874 C22.6517513,29.7057927 24.5747327,28.701463 25.8340765,26.5652271 C25.8271092,26.4986722 25.8248923,26.4537754 25.8248923,26.4537754 C26.6915325,24.7726733 27.5179521,20.991063 27.5179521,20.991063 C27.5179521,20.991063 27.5082929,25.3049538 27.0433823,27.1620072 C27.0535166,27.2849993 27.1963468,27.3468115 27.2927809,27.2695067 C28.2606055,26.4942458 32,23.0314979 32,15.8062683 C31.9998417,14.2111658 31.7575688,12.6792982 31.3086514,11.2378567 M13.1818911,29.0049909 C13.0244929,29.1629203 12.7716107,29.1722475 12.6066118,29.0222225 L12.6037615,29.019535 C12.4153271,28.8467454 12.2313264,28.6586213 12.0517595,28.4562693 C10.9477553,26.9185525 9.57630088,23.3041988 9.57630088,23.3041988 C9.57630088,23.3041988 10.4052541,28.1873626 11.3520184,29.8324207 C11.3612026,29.9797582 11.2112468,30.0839379 11.0757007,30.024497 C10.2355047,29.6561532 7.82021852,28.3821263 6.65002477,25.5239049 C6.05637709,23.756487 5.59605866,21.650762 5.59605866,21.650762 C5.59605866,21.650762 5.58750785,25.3890563 5.95677603,27.1620072 C5.94664174,27.2849993 5.80365325,27.3468115 5.70721915,27.2695067 C4.73955284,26.4944039 1,23.0314979 1,15.8062683 C1.00015835,14.2111658 1.24243121,12.6792982 1.69150691,11.2378567 C2.14042427,9.79657327 2.79677787,8.44587396 3.62636448,7.21974756 C5.28569604,4.76702052 7.63083398,2.79661833 10.397495,1.65238125 C10.8834659,1.45129399 11.3588274,1.30111089 11.8181957,1.18728792 C11.8585746,1.18112251 11.9084543,1.16831742 11.9645096,1.15124398 C12.1896808,1.09891702 12.4101016,1.0563915 12.6260886,1.02066373 C13.4498164,0.875381346 13.4344566,1.52654362 12.4224528,2.02341253 C10.1444545,3.41616311 8.62431106,5.92343034 8.62431106,8.78544584 C8.62431106,10.0031936 8.90015375,11.1562836 9.39166679,12.1871719 C9.39166679,12.1871719 11.5319021,17.7712955 13.7118828,21.784504 C14.4192245,23.0866704 15.0480255,24.2350178 15.6521242,25.2617959 C15.7583759,25.4424899 15.7560006,25.6679226 15.6430983,25.8446644 C14.858641,27.0720555 14.0789341,28.1043666 13.1818911,29.0049909" id="Symbol-Copy" fill="#545C53"></path>
    </g>
</svg>