<?xml version="1.0" encoding="UTF-8"?>
<svg width="47px" height="46px" viewBox="0 0 47 46" version="1.1" xmlns="http://www.w3.org/2000/svg" xmlns:xlink="http://www.w3.org/1999/xlink">
    <!-- Generator: Sketch 50.2 (55047) - http://www.bohemiancoding.com/sketch -->
    <title>Symbol_header</title>
    <desc>Created with Sketch.</desc>
    <defs></defs>
    <g id="Symbol_header" stroke="none" stroke-width="1" fill="none" fill-rule="evenodd">
        <path d="M16.0735962,11.8860522 C16.0735962,16.0269848 19.3981744,19.3837509 23.4993998,19.3837509 C27.6006252,19.3837509 30.9252034,16.0269848 30.9252034,11.8860522 C30.9252034,7.74511968 27.6006252,4.38835365 23.4993998,4.38835365 C19.3981744,4.38835365 16.0735962,7.74511968 16.0735962,11.8860522 M45.9518264,15.698047 C45.2709697,13.488079 44.276093,11.4170067 43.0180926,9.53694626 C40.5020917,5.77609813 36.9468001,2.75481477 32.752185,1.00031791 C32.0153904,0.691984114 31.294441,0.46170337 30.5982193,0.287174807 C30.5369999,0.277721177 30.4613758,0.258086713 30.3766288,0.231907429 C30.0350001,0.15167277 29.7008137,0.0864669592 29.3733495,0.0316843824 C28.1052658,-0.16732666 28.2231434,0.759856333 29.6823278,1.56923255 C33.1358271,3.70478344 35.4405607,7.54925985 35.4405607,11.9376836 C35.4405607,13.8048968 35.0223475,15.5729681 34.2771503,17.1536637 C34.2771503,17.1536637 31.0325176,25.7159865 27.7271455,31.8695728 C24.3175802,38.2175644 22.1035955,42.2166926 18.5238161,45.2457327 C18.3118286,45.4251093 18.4080993,45.773924 18.6815463,45.814405 C21.2309178,46.191823 27.2484331,46.5377289 31.1112626,40.991599 C33.123103,38.0154022 33.6937647,35.0828375 33.6937647,35.0828375 C33.6937647,35.0828375 32.6030975,41.5338495 31.3050043,44.2097118 C31.2910799,44.4349021 31.5165116,44.5960986 31.7212968,44.5054407 C32.8268487,44.0155488 35.7423367,42.4755766 37.6516644,39.2000148 C37.6411011,39.0979641 37.63774,39.0291223 37.63774,39.0291223 C38.9516782,36.4514323 40.2046371,30.6529632 40.2046371,30.6529632 C40.2046371,30.6529632 40.1899924,37.2675958 39.485128,40.1150778 C39.5004929,40.3036656 39.7170418,40.3984443 39.8632484,40.2799103 C41.3305954,39.0911769 47,33.7816301 47,22.7029448 C46.9997599,20.2571209 46.632443,17.9082573 45.9518264,15.698047 M18.4693187,42.9409861 C18.2306828,43.1831445 17.8472808,43.1974461 17.5971211,42.9674078 L17.5927998,42.963287 C17.3071088,42.6983429 17.02814,42.409886 16.7558934,42.099613 C15.0820806,39.7417806 13.0027788,34.1997715 13.0027788,34.1997715 C13.0027788,34.1997715 14.2595788,41.6872892 15.6949957,44.2097118 C15.7089201,44.4356293 15.4815678,44.5953714 15.2760623,44.5042287 C14.0022169,43.9394349 10.3403313,41.985927 8.56616659,37.6033209 C7.66612011,34.8932801 6.96821797,31.6645017 6.96821797,31.6645017 C6.96821797,31.6645017 6.95525384,37.396553 7.51511204,40.1150778 C7.49974715,40.3036656 7.28295815,40.3984443 7.13675161,40.2799103 C5.66964464,39.0914193 0,33.7816301 0,22.7029448 C0.000240076416,20.2571209 0.367556993,17.9082573 1.04841371,15.698047 C1.72903035,13.488079 2.72414709,11.4170067 3.98190743,9.53694626 C6.49766819,5.77609813 10.0531999,2.75481477 14.247815,1.00031791 C14.9846096,0.691984114 15.705319,0.46170337 16.4017807,0.287174807 C16.4630001,0.277721177 16.5386242,0.258086713 16.6236113,0.231907429 C16.9649999,0.15167277 17.2991863,0.0864669592 17.6266505,0.0316843824 C18.875528,-0.191081937 18.8522406,0.807366886 17.3179123,1.56923255 C13.8641729,3.70478344 11.5594393,7.54925985 11.5594393,11.9376836 C11.5594393,13.8048968 11.9776525,15.5729681 12.7228497,17.1536637 C12.7228497,17.1536637 15.9677225,25.7159865 19.2728545,31.8695728 C20.3452759,33.866228 21.2986193,35.6270273 22.2145108,37.2014204 C22.3756021,37.4784845 22.372001,37.824148 22.2008265,38.095152 C21.0114879,39.9771517 19.8293516,41.5600288 18.4693187,42.9409861" id="Symbol" fill="#545C53"></path>
    </g>
</svg>